<svg width="30" height="30" viewBox="0 0 30 30" fill="none" xmlns="http://www.w3.org/2000/svg">
<rect width="30" height="30" rx="3" fill="#1986C8"/>
<path d="M9.29304 19.1924C8.90252 19.5829 8.90252 20.2161 9.29304 20.6066C9.68357 20.9971 10.3167 20.9971 10.7073 20.6066L14.9497 16.3642L19.1924 20.6068C19.5829 20.9974 20.2161 20.9974 20.6066 20.6068C20.9971 20.2163 20.9971 19.5831 20.6066 19.1926L16.3639 14.9499L20.6068 10.7071C20.9973 10.3166 20.9973 9.68342 20.6068 9.29289C20.2162 8.90237 19.5831 8.90237 19.1925 9.29289L14.9497 13.5357L10.7071 9.29312C10.3166 8.9026 9.68342 8.9026 9.29289 9.29312C8.90237 9.68365 8.90237 10.3168 9.29289 10.7073L13.5355 14.9499L9.29304 19.1924Z" fill="white"/>
</svg>
