<svg width="163" height="30" viewBox="0 0 163 30" fill="none" xmlns="http://www.w3.org/2000/svg">
<path d="M67.734 20.0016C68.8209 20.0076 69.8861 19.6978 70.7999 19.1101C71.7356 18.5157 72.3997 17.5625 72.7921 16.2503H66.9708V13.6209H72.7921C72.6483 12.5815 72.1 11.6576 71.147 10.8494C70.2105 10.0526 69.0158 9.62322 67.7858 9.64127C66.0308 9.64127 64.4827 10.3663 63.1417 11.8163L61.1172 9.90614C61.9321 8.93269 62.9605 8.15972 64.1227 7.64715C65.2568 7.12832 66.4888 6.8574 67.7362 6.85252C69.836 6.83009 71.8645 7.61233 73.4044 9.03829C75.0214 10.4969 75.8299 12.4149 75.8299 14.7924C75.8299 17.075 75.0918 18.9773 73.6157 20.4991C72.1395 22.0209 70.1933 22.7817 67.7772 22.7817C66.6603 22.7878 65.5515 22.5923 64.5043 22.2046C63.4723 21.8156 62.3641 21.0367 61.1797 19.8681L63.1417 17.8266C64.546 19.278 66.0768 20.0031 67.734 20.0016Z" fill="white"/>
<path d="M93.7377 9.89285L91.7154 11.818C90.3398 10.3666 88.7925 9.64089 87.0734 9.64089C86.3947 9.63277 85.7213 9.76049 85.0927 10.0165C84.4642 10.2725 83.8934 10.6517 83.414 11.1316C82.9345 11.6115 82.5561 12.1824 82.3011 12.8107C82.0461 13.439 81.9196 14.1119 81.9292 14.7898C81.9073 15.7287 82.1302 16.657 82.576 17.4838C83.011 18.2636 83.6584 18.9042 84.4431 19.3315C85.2633 19.7828 86.1867 20.0136 87.123 20.0012C87.9147 20.0117 88.6994 19.8516 89.4235 19.5318C90.1178 19.2202 90.881 18.651 91.7132 17.8241L93.673 19.8677C92.5519 20.9588 91.4919 21.7168 90.4929 22.1418C89.4088 22.5802 88.2472 22.7955 87.0778 22.7749C84.7176 22.7749 82.7851 22.0277 81.2802 20.5331C79.7753 19.0386 79.0243 17.1228 79.0272 14.7855C79.0017 13.3742 79.3561 11.982 80.0534 10.7542C80.7614 9.55811 81.7827 8.57754 83.0072 7.91811C84.2647 7.2066 85.6864 6.83544 87.1317 6.84138C88.389 6.8447 89.6309 7.1186 90.7727 7.64443C91.9145 8.17026 92.9295 8.93567 93.7485 9.88854L93.7377 9.89285Z" fill="white"/>
<path d="M97.5752 15.5049H102.819V18.1149H97.5752V15.5049Z" fill="white"/>
<path d="M117.423 22.3959L113.221 11.2431L108.944 22.3959H105.878L111.74 7.229H114.67L120.522 22.3959H117.423Z" fill="white"/>
<path d="M128.122 7.22705H131.054L136.893 22.3961H133.889L132.701 19.2714H126.505L125.265 22.3961H122.266L128.122 7.22705ZM129.605 11.2497L127.568 16.4547H131.632L129.605 11.2497Z" fill="white"/>
<path d="M151.409 7.227V22.396H148.52V12.8992L142.856 22.396H140.344V7.227H143.233V17.0317L148.981 7.227H151.409ZM141.748 3.15479H144.022C144.201 3.44087 144.461 3.66616 144.771 3.80083C145.143 3.95227 145.542 4.02558 145.943 4.01617C146.379 4.02299 146.811 3.93863 147.211 3.76852C147.481 3.63687 147.706 3.42863 147.858 3.16986H150.139C150.083 3.58702 149.943 3.98851 149.727 4.35011C149.512 4.71172 149.225 5.02593 148.884 5.2738C148.18 5.80355 147.195 6.06843 145.928 6.06843C145.204 6.08211 144.484 5.95636 143.807 5.69803C143.265 5.48286 142.787 5.13299 142.418 4.6816C142.063 4.24099 141.832 3.71407 141.748 3.15479Z" fill="white"/>
<path d="M154.606 7.22705H162.996V10.0739H160.234V22.3961H157.301V10.0739H154.606V7.22705Z" fill="white"/>
<path d="M103.834 13.6162H97.4912V16.2413H103.834V13.6162Z" fill="white"/>
<path d="M0 29.9935V24.065H15.4781V5.94573H0V0L21.4891 0.00646041V30L0 29.9935Z" fill="#1986C8"/>
<path d="M9.50161 11.9497H0V17.8825H9.50161V11.9497Z" fill="#1986C8"/>
<path d="M27.9961 29.9915V0.00439453H49.4852V5.94367H34.0567V24.0414H49.4572V29.9979L27.9961 29.9915Z" fill="#1986C8"/>
</svg>
