<svg width="162" height="30" viewBox="0 0 162 30" fill="none" xmlns="http://www.w3.org/2000/svg">
<path d="M67.3184 20.0016C68.3987 20.0076 69.4573 19.6978 70.3655 19.1101C71.2955 18.5157 71.9555 17.5625 72.3454 16.2503H66.5599V13.6209H72.3454C72.2026 12.5815 71.6576 11.6576 70.7105 10.8494C69.7797 10.0526 68.5924 9.62322 67.3699 9.64127C65.6256 9.64127 64.0871 10.3663 62.7543 11.8163L60.7422 9.90614C61.5521 8.93269 62.5742 8.15972 63.7293 7.64715C64.8564 7.12832 66.0808 6.8574 67.3206 6.85252C69.4075 6.83009 71.4235 7.61233 72.954 9.03829C74.5611 10.4969 75.3647 12.4149 75.3647 14.7924C75.3647 17.075 74.6311 18.9773 73.164 20.4991C71.6969 22.0209 69.7627 22.7817 67.3613 22.7817C66.2513 22.7878 65.1493 22.5923 64.1085 22.2046C63.0828 21.8156 61.9814 21.0367 60.8043 19.8681L62.7543 17.8266C64.15 19.278 65.6713 20.0031 67.3184 20.0016Z" fill="#1D1D1B"/>
<path d="M93.1626 9.89285L91.1527 11.818C89.7856 10.3666 88.2477 9.64089 86.5392 9.64089C85.8647 9.63277 85.1953 9.76049 84.5707 10.0165C83.946 10.2725 83.3787 10.6517 82.9022 11.1316C82.4256 11.6115 82.0496 12.1824 81.7961 12.8107C81.5427 13.439 81.417 14.1119 81.4265 14.7898C81.4048 15.7287 81.6263 16.657 82.0693 17.4838C82.5017 18.2636 83.1451 18.9042 83.925 19.3315C84.7401 19.7828 85.6579 20.0136 86.5885 20.0012C87.3753 20.0117 88.1552 19.8516 88.8749 19.5318C89.5648 19.2202 90.3234 18.651 91.1505 17.8241L93.0983 19.8677C91.9841 20.9588 90.9305 21.7168 89.9377 22.1418C88.8602 22.5802 87.7058 22.7955 86.5435 22.7749C84.1978 22.7749 82.2772 22.0276 80.7815 20.5331C79.2858 19.0386 78.5394 17.1228 78.5423 14.7855C78.517 13.3742 78.8692 11.982 79.5623 10.7542C80.2659 9.55811 81.2809 8.57754 82.4979 7.91811C83.7477 7.2066 85.1607 6.83544 86.5971 6.84138C87.8467 6.8447 89.0809 7.1186 90.2158 7.64443C91.3506 8.17026 92.3593 8.93567 93.1733 9.88854L93.1626 9.89285Z" fill="#1D1D1B"/>
<path d="M96.9766 15.5049H102.188V18.1149H96.9766V15.5049Z" fill="white"/>
<path d="M116.703 22.3959L112.527 11.2431L108.275 22.3959H105.228L111.055 7.229H113.967L119.782 22.3959H116.703Z" fill="#1D1D1B"/>
<path d="M127.336 7.22705H130.25L136.053 22.3961H133.068L131.887 19.2714H125.729L124.497 22.3961H121.516L127.336 7.22705ZM128.81 11.2497L126.785 16.4547H130.824L128.81 11.2497Z" fill="#1D1D1B"/>
<path d="M150.48 7.227V22.396H147.609V12.8992L141.98 22.396H139.483V7.227H142.355V17.0317L148.067 7.227H150.48ZM140.878 3.15479H143.139C143.316 3.44087 143.575 3.66616 143.882 3.80083C144.252 3.95227 144.649 4.02558 145.048 4.01617C145.481 4.02299 145.91 3.93863 146.308 3.76852C146.576 3.63687 146.8 3.42863 146.951 3.16986H149.218C149.162 3.58702 149.023 3.98851 148.809 4.35011C148.594 4.71172 148.309 5.02593 147.971 5.2738C147.271 5.80355 146.292 6.06843 145.033 6.06843C144.313 6.08211 143.597 5.95636 142.924 5.69803C142.386 5.48286 141.911 5.13299 141.545 4.6816C141.192 4.24099 140.962 3.71407 140.878 3.15479V3.15479Z" fill="#1D1D1B"/>
<path d="M153.658 7.22705H161.996V10.0739H159.251V22.3961H156.336V10.0739H153.658V7.22705Z" fill="#1D1D1B"/>
<path d="M103.197 13.6162H96.8931V16.2413H103.197V13.6162Z" fill="#1D1D1B"/>
<path d="M0 29.9935V24.065H15.3832V5.94573H0V0L21.3573 0.00646041V30L0 29.9935Z" fill="#1986C8"/>
<path d="M9.44332 11.9497H0V17.8825H9.44332V11.9497Z" fill="#1986C8"/>
<path d="M27.8242 29.9915V0.00439453H49.1815V5.94367H33.8476V24.0414H49.1537V29.9979L27.8242 29.9915Z" fill="#1986C8"/>
</svg>
