<svg width="166" height="32" viewBox="0 0 166 32" fill="none" xmlns="http://www.w3.org/2000/svg">
<path d="M12.5463 31.3189L3.86727 26.1333L6.98261 24.272L14.1039 28.5272C14.367 28.6842 14.6906 28.6842 14.9536 28.5272L22.1599 24.221L25.2752 26.083L16.5113 31.3196C15.912 31.6794 15.2269 31.8694 14.5288 31.8694C13.8307 31.8694 13.1456 31.6794 12.5463 31.3196V31.3189ZM29.1978 8.79162V19.1642L26.0825 17.3021V8.79162C26.0825 8.47695 25.9203 8.18667 25.658 8.02971L18.4518 3.72343V0L27.2157 5.23657C28.4421 5.97029 29.1978 7.32495 29.1978 8.79162ZM0 8.79162V19.1642L3.11534 17.3021V8.79162C3.11534 8.47695 3.27755 8.18667 3.54058 8.02971L10.7468 3.72343V0L1.9829 5.23657C0.755717 5.97029 0 7.32495 0 8.79238V8.79162ZM20.9403 21.2945L21.5611 20.1821L14.5428 15.9886L7.47531 20.2118L8.07942 21.2937H20.9403V21.2945ZM6.74006 18.8305L13.8076 14.6072V5.97105H12.7812L6.17459 17.8156L6.74006 18.8305ZM15.272 5.97105V14.6072L22.291 18.8008L22.8936 17.7189L16.34 5.97029H15.272V5.97105Z" fill="#D91745"/>
<path d="M49.8802 9.67392H38.4648V21.7905H41.9516V12.4884H49.8802V9.67392ZM59.3323 15.9467C59.9827 15.9467 60.4943 15.9253 60.868 15.8827C61.2417 15.84 61.5252 15.7608 61.7192 15.6465C61.9133 15.517 62.0308 15.3455 62.0725 15.1307C62.1278 14.9021 62.1558 14.6012 62.1558 14.2286V14.0777C62.1558 13.7059 62.1278 13.405 62.0725 13.1756C62.0561 13.0685 62.0158 12.9664 61.9546 12.8771C61.8935 12.7877 61.813 12.7135 61.7192 12.6598C61.526 12.5311 61.2417 12.4457 60.868 12.4023C60.4943 12.3596 59.9827 12.3383 59.3323 12.3383H55.3051V15.9474H59.3323V15.9467ZM55.3051 21.7905H51.8601V9.67392H59.9342C61.0825 9.67392 62.024 9.73106 62.7569 9.84611C63.4907 9.9604 64.0652 10.1753 64.4799 10.4907C64.8952 10.7916 65.1787 11.2282 65.3311 11.8012C65.4971 12.3596 65.5805 13.0895 65.5805 13.9924V14.3147C65.5805 15.2168 65.4971 15.9543 65.3303 16.5273C65.1787 17.0857 64.8952 17.5223 64.4799 17.8377C64.0652 18.1524 63.4907 18.3673 62.7569 18.4823C62.024 18.5966 61.0825 18.6537 59.9342 18.6537H55.3059V21.7905H55.3051ZM82.0652 21.7905H78.3086L77.2293 19.6206H69.8396L68.7807 21.7905H65.0453L71.417 9.67392H75.6723L82.0652 21.7905ZM75.9839 17.0857L73.5553 12.2095H73.4719L71.085 17.0857H75.9839ZM83.8602 21.7905V9.67392H93.3874C94.2871 9.67392 95.0337 9.72421 95.6287 9.82478C96.2382 9.92459 96.7218 10.0968 97.0818 10.3398C97.4418 10.5692 97.6973 10.877 97.8496 11.264C98.002 11.6503 98.0786 12.1303 98.0786 12.7033C98.0786 13.5482 97.933 14.1783 97.6419 14.5935C97.3516 15.0088 96.9507 15.2953 96.4383 15.453V15.4956C97.0886 15.6099 97.5874 15.8895 97.933 16.3337C98.2787 16.7779 98.4515 17.4293 98.4515 18.2888C98.4515 18.976 98.3689 19.549 98.2029 20.0076C98.0518 20.4308 97.7858 20.803 97.435 21.0819C97.0886 21.3394 96.6528 21.5253 96.1267 21.6404C95.6014 21.7402 94.9784 21.7905 94.259 21.7905H83.8602ZM93.6572 19.2122C94.1832 19.2122 94.5425 19.1124 94.7366 18.912C94.9443 18.6972 95.0473 18.3817 95.0473 17.9673C95.0473 17.5368 94.9443 17.229 94.7366 17.0431C94.5425 16.8564 94.1832 16.7634 93.6572 16.7634H87.3052V19.213H93.6572V19.2122ZM93.5738 14.4427C93.9339 14.4427 94.2105 14.365 94.4046 14.2065C94.6123 14.0495 94.7154 13.7562 94.7154 13.3265C94.7154 12.8678 94.6123 12.56 94.4046 12.4023C94.2105 12.2446 93.9339 12.1661 93.5738 12.1661H87.3052V14.4434H93.5738V14.4427ZM100.722 21.7905H105.931L112.781 12.7246H112.864V21.7905H116.268V9.67392H110.975L104.208 18.7406H104.146V9.67392H100.722V21.7905ZM127.029 21.7905H123.563V12.4023H118.519V9.67468H132.093V12.4023H127.029V21.7905ZM140.741 21.9406C139.894 21.9462 139.047 21.9177 138.203 21.8553C137.4 21.8118 136.715 21.7189 136.148 21.5756C135.58 21.4179 135.117 21.2031 134.757 20.9311C134.402 20.6469 134.123 20.2774 133.947 19.8568C133.753 19.4133 133.622 18.8686 133.553 18.224C133.484 17.5802 133.449 16.8069 133.449 15.904V15.5612C133.449 14.6583 133.484 13.885 133.553 13.2404C133.622 12.5958 133.753 12.0518 133.947 11.6076C134.141 11.1497 134.411 10.7848 134.757 10.512C135.117 10.24 135.58 10.032 136.148 9.88878C136.715 9.74554 137.4 9.65259 138.203 9.60992C139.047 9.54719 139.894 9.51847 140.741 9.52382H141.28C142.401 9.52382 142.995 9.55278 143.797 9.60992C144.613 9.65259 145.305 9.74554 145.873 9.88878C146.44 10.032 146.897 10.2393 147.243 10.512C147.603 10.784 147.879 11.149 148.073 11.6076C148.267 12.0518 148.399 12.5958 148.468 13.2404C148.536 13.885 148.571 14.6575 148.571 15.5604V15.904C148.571 16.8069 148.536 17.5802 148.468 18.2248C148.399 18.8686 148.267 19.421 148.073 19.8781C147.894 20.3029 147.608 20.6732 147.243 20.9524C146.897 21.2252 146.44 21.4324 145.873 21.5756C145.305 21.7189 144.613 21.8118 143.797 21.8553C142.959 21.9183 142.12 21.947 141.28 21.9413H140.741V21.9406ZM141.155 19.1269C142.166 19.1269 142.586 19.0979 143.153 19.0408C143.735 18.9836 144.164 18.8473 144.44 18.6324C144.731 18.4038 144.904 18.0671 144.96 17.6229C145.029 17.1787 145.063 16.5775 145.063 15.8187V15.6252C145.063 14.8518 145.029 14.2431 144.96 13.7989C144.904 13.341 144.731 13.0042 144.44 12.7893C144.164 12.5608 143.735 12.4168 143.153 12.3596C142.586 12.3025 142.166 12.2735 141.155 12.2735H140.865C139.841 12.2735 139.413 12.3025 138.846 12.3596C138.279 12.4168 137.85 12.56 137.559 12.7893C137.283 13.0042 137.109 13.341 137.04 13.7989C136.985 14.2431 136.957 14.8518 136.957 15.6252V15.8187C136.957 16.5775 136.985 17.1787 137.04 17.6229C137.109 18.0671 137.283 18.4031 137.559 18.6324C137.85 18.8473 138.279 18.9829 138.846 19.0408C139.413 19.0979 139.841 19.1269 140.865 19.1269H141.155ZM165.184 21.7905H161.697V17.1071H153.955V21.7905H150.468V9.67392H153.955V14.0998H161.697V9.67392H165.184V21.7905Z" fill="black"/>
</svg>
